<?xml version="1.0" encoding="UTF-8"?>
<svg id="Layer_2" data-name="Layer 2" xmlns="http://www.w3.org/2000/svg" viewBox="0 0 278 448">
  <defs>
    <style>
      .cls-1 {
        fill: #8275fc;
      }

      .cls-2 {
        fill: #a7fbc2;
        opacity: .38;
      }

      .cls-3 {
        font-family: CourierNewPS-BoldMT, 'Courier New';
        font-size: 296.5px;
        font-weight: 700;
      }
    </style>
  </defs>
  <g id="Layer_1-2" data-name="Layer 1">
    <g>
      <circle class="cls-2" cx="139" cy="139" r="139"/>
      <g>
        <path d="M241.28,78.1c-8.48-10.96-19.99-16.43-34.51-16.43l-49.42-.14c-5.17,0-8.85,1.37-11.05,4.12-2.2,2.75-3.3,6.35-3.3,10.79s1.1,8.04,3.3,10.79c2.2,2.75,5.88,4.13,11.05,4.13h3.35v116.11h-3.35c-5.1,0-8.77,1.38-11,4.13-2.24,2.75-3.35,6.29-3.35,10.64s1.1,8.04,3.3,10.79c2.2,2.75,5.88,4.13,11.05,4.13h46.49c5.17,0,8.85-1.38,11.05-4.13,2.2-2.75,3.3-6.29,3.3-10.64s-1.1-8.04-3.3-10.79c-2.2-2.75-5.88-4.13-11.05-4.13h-21.67v-30.55h20.32c8.65,0,15.62-1.42,20.89-4.27,5.27-2.85,10.43-7.09,15.5-12.74,5.06-5.65,8.67-11.36,10.84-17.15,2.86-7.72,4.29-15.93,4.29-24.62,0-15.73-4.24-29.07-12.72-40.03Zm-16.96,60.37c-5.48,5.84-12.9,8.76-22.26,8.76h-19.89v-55.88h24.71c8.24,0,14.57,2.61,19.01,7.82,4.43,5.21,6.65,11.29,6.65,18.24,0,8.21-2.74,15.23-8.22,21.06Z"/>
        <text class="cls-3" transform="translate(34.07 237.35) scale(.72 1)"><tspan x="0" y="0">V</tspan></text>
        <path d="M149.24,147.74c1.15,0,2.08,.54,2.78,1.61,.71,1.07,1.06,2.88,1.06,5.43v14.01c-.01,2.48-.21,4.12-.61,4.91-.77,1.65-1.86,2.48-3.26,2.48-1.15,0-2.08-.55-2.78-1.63s-1.06-2.91-1.06-5.46l.05-14.32c0-2.51,.35-4.32,1.05-5.4,.7-1.08,1.62-1.63,2.77-1.62Z"/>
        <path class="cls-1" d="M218,222.58c0,4.34-1.1,7.89-3.3,10.64-2.2,2.75-5.88,4.13-11.05,4.13h-46.49c-5.17,0-8.85-1.38-11.05-4.13-2.2-2.75-3.3-6.35-3.3-10.79s1.12-7.89,3.35-10.64c2.23-2.75,5.9-4.13,11-4.13h3.35V92.06h.09v-.74h21.45v.24h-.06v55.88h.06v29.68h-.06v30.55h21.67c5.17,0,8.85,1.38,11.05,4.13,2.2,2.75,3.3,6.35,3.3,10.79Z"/>
      </g>
    </g>
  </g>
</svg>